<?xml version="1.0" standalone="no"?>
<!DOCTYPE svg PUBLIC "-//W3C//DTD SVG 20010904//EN"
 "http://www.w3.org/TR/2001/REC-SVG-20010904/DTD/svg10.dtd">
<svg version="1.0" xmlns="http://www.w3.org/2000/svg"
 width="1000.000000pt" height="1000.000000pt" viewBox="0 0 1000.000000 1000.000000"
 preserveAspectRatio="xMidYMid meet">
<metadata>
Created by potrace 1.11, written by Peter Selinger 2001-2013
</metadata>
<g transform="translate(0.000000,1000.000000) scale(0.100000,-0.100000)"
fill="#000000" stroke="none">
<path d="M4810 6979 c-258 -23 -498 -108 -658 -233 -199 -156 -774 -650 -815
-701 -67 -83 -121 -183 -159 -295 l-33 -95 -3 -509 c-3 -556 -1 -581 56 -729
73 -188 232 -338 455 -429 42 -18 76 -35 75 -39 -2 -3 -122 -106 -268 -228
-154 -129 -277 -239 -292 -263 l-28 -42 0 -426 c0 -421 1 -425 23 -464 15 -27
38 -48 72 -65 l49 -26 986 0 c886 0 995 2 1080 17 192 35 372 101 487 179 86
58 813 670 866 730 63 70 130 184 162 276 51 149 57 197 62 568 8 516 -10 671
-98 855 -33 70 -55 99 -127 170 -123 120 -271 201 -466 256 -48 13 -56 18 -45
29 8 6 122 102 255 212 174 146 246 211 260 239 18 36 19 68 22 449 l3 410
-28 55 c-23 44 -37 59 -78 80 l-49 25 -836 1 c-459 1 -878 -2 -930 -7z m1790
-67 c22 -12 44 -35 58 -63 23 -44 23 -45 20 -439 -3 -447 -2 -441 -83 -480
-40 -19 -64 -20 -716 -20 -622 0 -677 -1 -709 -18 -50 -25 -75 -74 -75 -147 0
-71 27 -122 77 -148 22 -11 174 -36 453 -72 567 -75 651 -93 820 -177 222
-110 336 -243 397 -464 21 -75 22 -102 26 -539 3 -426 2 -468 -16 -556 -37
-181 -96 -293 -223 -420 -135 -137 -289 -216 -519 -267 l-115 -26 -995 -3
-995 -4 -45 23 c-26 14 -53 37 -65 58 -19 33 -20 52 -20 425 0 443 0 441 78
486 l42 24 791 5 c894 6 816 -2 850 86 21 55 14 146 -14 183 -38 51 -61 57
-527 121 -510 70 -629 96 -778 168 -190 92 -283 175 -353 317 -77 156 -86 217
-91 659 -7 525 6 629 101 822 121 245 386 414 732 468 70 11 274 14 974 15
839 1 887 0 920 -17z"/>
<path d="M4850 6434 c-192 -41 -341 -184 -379 -362 -14 -70 -15 -608 0 -687
22 -121 85 -197 201 -244 29 -11 328 -77 664 -146 336 -68 631 -132 655 -141
105 -42 184 -118 213 -206 43 -132 48 -582 8 -705 -39 -121 -120 -216 -234
-274 -116 -59 -116 -59 -900 -59 l-718 0 0 -31 0 -30 728 4 c810 4 787 2 924
74 121 63 214 176 255 308 16 52 18 97 18 340 0 299 -7 354 -56 450 -41 80
-125 145 -234 183 -33 12 -330 76 -660 142 -652 132 -694 144 -754 217 -60 73
-64 99 -69 424 -2 182 1 318 7 353 28 153 139 273 304 330 60 20 80 21 720 24
l657 3 0 24 0 25 -642 -1 c-513 0 -656 -3 -708 -15z"/>
</g>
</svg>
