<?xml version="1.0" standalone="no"?>
<!DOCTYPE svg PUBLIC "-//W3C//DTD SVG 20010904//EN"
 "http://www.w3.org/TR/2001/REC-SVG-20010904/DTD/svg10.dtd">
<svg version="1.0" xmlns="http://www.w3.org/2000/svg"
 width="1000.000000pt" height="1000.000000pt" viewBox="0 0 1000.000000 1000.000000"
 preserveAspectRatio="xMidYMid meet">
<metadata>
Created by potrace 1.11, written by Peter Selinger 2001-2013
</metadata>
<g transform="translate(0.000000,1000.000000) scale(0.100000,-0.100000)"
fill="#000000" stroke="none">
<path d="M4807 6979 c-252 -22 -495 -108 -654 -233 -192 -149 -774 -650 -816
-701 -67 -83 -121 -183 -159 -295 l-33 -95 -3 -509 c-3 -556 -1 -581 56 -729
73 -188 232 -338 455 -429 42 -18 76 -35 75 -39 -2 -3 -127 -110 -279 -237
-192 -162 -280 -242 -292 -267 -15 -32 -17 -81 -17 -458 0 -418 1 -422 23
-461 15 -27 38 -48 72 -65 l49 -26 991 0 c907 0 998 1 1085 18 179 33 346 95
465 170 56 35 749 610 833 691 156 149 239 340 263 601 17 183 6 806 -15 913
-38 188 -88 286 -205 402 -121 119 -274 204 -465 256 -48 13 -56 18 -45 29 8
6 122 102 255 212 174 146 246 211 260 239 18 37 19 65 19 459 0 393 -1 422
-19 458 -24 49 -77 84 -145 97 -63 12 -1618 11 -1754 -1z m1793 -67 c22 -12
44 -35 58 -63 23 -44 23 -45 20 -439 -3 -447 -2 -441 -83 -480 -40 -19 -64
-20 -716 -20 -622 0 -677 -1 -709 -18 -50 -25 -75 -74 -75 -147 0 -71 27 -122
77 -148 22 -12 183 -37 483 -77 556 -74 621 -89 790 -173 225 -111 338 -244
397 -467 21 -81 22 -108 25 -541 4 -420 3 -463 -15 -550 -75 -369 -327 -597
-762 -692 -92 -20 -126 -21 -1090 -24 l-995 -4 -45 23 c-85 44 -85 42 -88 451
-4 411 1 450 54 496 19 17 44 33 57 36 12 3 371 6 797 8 875 2 813 -4 851 80
44 98 5 227 -76 250 -11 4 -218 33 -460 67 -491 68 -628 97 -768 163 -191 90
-302 190 -366 329 -77 165 -91 277 -91 733 0 456 13 549 100 730 122 254 384
424 737 479 69 11 276 14 973 15 839 1 887 0 920 -17z"/>
<path d="M4850 6434 c-98 -21 -186 -69 -256 -138 -63 -64 -97 -122 -120 -209
-17 -65 -20 -612 -3 -702 22 -119 77 -188 191 -239 35 -16 261 -67 669 -150
339 -69 636 -133 660 -142 65 -26 109 -56 151 -102 77 -86 89 -147 89 -482 0
-235 -2 -273 -20 -328 -37 -119 -119 -215 -233 -273 -116 -59 -116 -59 -900
-59 l-718 0 0 -31 0 -30 728 4 c646 3 734 5 791 20 187 50 332 184 386 357 23
70 33 453 16 593 -25 216 -104 323 -286 386 -33 11 -330 75 -660 141 -652 132
-694 144 -754 217 -60 73 -64 99 -69 424 -2 182 1 318 7 353 28 153 139 273
304 330 60 20 80 21 720 24 l657 3 0 24 0 25 -642 -1 c-513 0 -656 -3 -708
-15z"/>
</g>
</svg>
